<?xml version="1.0" encoding="UTF-8"?>
<svg version="1.1" xmlns="http://www.w3.org/2000/svg" width="72" height="72">
<path d="M0 0 C23.76 0 47.52 0 72 0 C72 23.76 72 47.52 72 72 C48.24 72 24.48 72 0 72 C0 48.24 0 24.48 0 0 Z " fill="#0BC266" transform="translate(0,0)"/>
<path d="M0 0 C1.17240234 -0.02449219 2.34480469 -0.04898437 3.55273438 -0.07421875 C10.31586505 -0.09713167 14.93610112 0.08891977 20.3125 4.375 C22.87461091 7.87446856 22.38152871 11.00151794 22.08984375 15.15625 C22.37384211 17.98626878 23.62487894 19.12916582 25.3125 21.375 C26.17370395 26.14653538 26.01584178 30.16927124 23.5625 34.375 C19.26382527 38.1960442 16.17346907 38.63003181 10.4296875 38.640625 C9.44647018 38.64349518 9.44647018 38.64349518 8.44338989 38.64642334 C7.06333022 38.64778003 5.68325757 38.64411971 4.30322266 38.63574219 C2.18753616 38.62500018 0.07269207 38.63567185 -2.04296875 38.6484375 C-3.38541854 38.64711649 -4.72786781 38.6445553 -6.0703125 38.640625 C-7.29121582 38.63836914 -8.51211914 38.63611328 -9.77001953 38.63378906 C-12.6875 38.375 -12.6875 38.375 -14.6875 36.375 C-14.8870697 33.81749547 -14.96736826 31.37061859 -14.953125 28.8125 C-14.95503845 28.06540771 -14.9569519 27.31831543 -14.95892334 26.54858398 C-14.96028498 24.96825829 -14.95659 23.38792142 -14.94824219 21.80761719 C-14.937542 19.38451078 -14.94813779 16.96214577 -14.9609375 14.5390625 C-14.9596159 13.00520669 -14.9570535 11.47135135 -14.953125 9.9375 C-14.95717346 9.21038818 -14.96122192 8.48327637 -14.96539307 7.73413086 C-14.87359596 -2.08141363 -7.94797695 0.00859705 0 0 Z " fill="#F6FCF9" transform="translate(31.6875,14.625)"/>
<path d="M0 0 C7.59 0 15.18 0 23 0 C23.33 1.65 23.66 3.3 24 5 C23 6 23 6 20.77514648 6.11352539 C19.81680908 6.10828857 18.85847168 6.10305176 17.87109375 6.09765625 C16.31938477 6.09282227 16.31938477 6.09282227 14.73632812 6.08789062 C13.64771484 6.07951172 12.55910156 6.07113281 11.4375 6.0625 C9.7987793 6.05573242 9.7987793 6.05573242 8.12695312 6.04882812 C5.41791505 6.03699826 2.70898401 6.02051543 0 6 C0 4.02 0 2.04 0 0 Z " fill="#0DC267" transform="translate(25,38)"/>
<path d="M0 0 C6.6 0 13.2 0 20 0 C20.33 1.32 20.66 2.64 21 4 C20 5 20 5 18.05053711 5.11352539 C17.2178833 5.10828857 16.38522949 5.10305176 15.52734375 5.09765625 C14.62822266 5.09443359 13.72910156 5.09121094 12.80273438 5.08789062 C11.85720703 5.07951172 10.91167969 5.07113281 9.9375 5.0625 C8.98810547 5.05798828 8.03871094 5.05347656 7.06054688 5.04882812 C4.70696935 5.0370011 2.35351523 5.02052025 0 5 C0 3.35 0 1.7 0 0 Z " fill="#0DC267" transform="translate(25,24)"/>
</svg>
